<svg width="265" height="265" viewBox="0 0 265 265" fill="none" xmlns="http://www.w3.org/2000/svg">
<path d="M127.097 127.615C128.867 131.312 129.256 134.025 128.855 135.872C128.359 138.158 126.811 141.253 124.029 145.044C121.295 148.771 117.571 152.901 113.082 157.237C104.107 165.906 92.3114 175.166 79.8867 183.396C67.4539 191.631 54.5329 198.74 43.332 203.181C37.7281 205.402 32.6663 206.912 28.3818 207.592C24.0266 208.283 20.8732 208.053 18.8164 207.231C17.2914 206.622 15.2175 204.537 13.0791 199.866C11.0254 195.381 9.25446 189.263 7.83789 181.928C5.01076 167.289 3.71862 148.468 4.05078 129.744C4.38319 111.007 6.33784 92.6268 9.88184 78.8379C11.6596 71.921 13.7798 66.3926 16.1436 62.585C18.5585 58.695 20.7652 57.3076 22.502 57.1016C25.2757 56.7724 29.15 57.2308 34.0205 58.5977C38.831 59.9477 44.3389 62.1053 50.2656 64.915C62.1171 70.5335 75.3634 78.6267 87.6143 87.6172C99.8794 96.6182 110.99 106.404 118.653 115.353C122.49 119.833 125.357 123.982 127.097 127.615Z" fill="#EE979B" stroke="#EE979B" stroke-width="8"/>
<path d="M259.108 127.604C260.866 131.302 261.255 134.021 260.855 135.878C260.362 138.169 258.824 141.265 256.063 145.056C253.35 148.782 249.655 152.912 245.2 157.247C236.294 165.915 224.588 175.174 212.258 183.403C199.92 191.638 187.098 198.745 175.985 203.185C170.425 205.406 165.406 206.912 161.159 207.592C156.842 208.282 153.725 208.052 151.696 207.235C150.196 206.632 148.138 204.554 146.013 199.877C143.974 195.39 142.216 189.27 140.81 181.934C138.003 167.292 136.721 148.469 137.051 129.744C137.381 111.006 139.321 92.6227 142.839 78.8311C144.604 71.9125 146.708 66.382 149.055 62.5732C151.455 58.6774 153.64 57.3048 155.34 57.1016C158.081 56.7738 161.918 57.2296 166.749 58.5957C171.52 59.9447 176.984 62.1002 182.864 64.9092C194.624 70.5263 207.769 78.6187 219.927 87.6084C232.098 96.6084 243.124 106.393 250.729 115.341C254.536 119.821 257.381 123.97 259.108 127.604Z" fill="#EE979B" stroke="#EE979B" stroke-width="8"/>
</svg>
