<svg width="265" height="265" viewBox="0 0 265 265" fill="none" xmlns="http://www.w3.org/2000/svg">
<path d="M137.903 127.615C136.133 131.312 135.744 134.025 136.145 135.872C136.641 138.158 138.189 141.253 140.971 145.044C143.705 148.771 147.429 152.901 151.918 157.237C160.893 165.906 172.689 175.166 185.113 183.396C197.546 191.631 210.467 198.74 221.668 203.181C227.272 205.402 232.334 206.912 236.618 207.592C240.973 208.283 244.127 208.053 246.184 207.231C247.709 206.622 249.782 204.537 251.921 199.866C253.975 195.381 255.746 189.263 257.162 181.928C259.989 167.289 261.281 148.468 260.949 129.744C260.617 111.007 258.662 92.6268 255.118 78.8379C253.34 71.921 251.22 66.3926 248.856 62.585C246.442 58.695 244.235 57.3076 242.498 57.1016C239.724 56.7724 235.85 57.2308 230.979 58.5977C226.169 59.9477 220.661 62.1053 214.734 64.915C202.883 70.5335 189.637 78.6267 177.386 87.6172C165.121 96.6182 154.01 106.404 146.347 115.353C142.51 119.833 139.643 123.982 137.903 127.615Z" fill="#EE979B" stroke="#EE979B" stroke-width="8"/>
<path d="M5.8916 127.604C4.13422 131.302 3.7448 134.021 4.14453 135.878C4.63788 138.169 6.17647 141.265 8.93652 145.056C11.6504 148.782 15.345 152.912 19.7998 157.247C28.7065 165.915 40.4122 175.174 52.7422 183.403C65.0804 191.638 77.9018 198.745 89.0146 203.185C94.5746 205.406 99.5942 206.912 103.841 207.592C108.158 208.282 111.275 208.052 113.304 207.235C114.804 206.632 116.862 204.554 118.987 199.877C121.026 195.39 122.784 189.27 124.19 181.934C126.997 167.292 128.279 148.469 127.949 129.744C127.619 111.006 125.679 92.6227 122.161 78.8311C120.396 71.9125 118.292 66.382 115.945 62.5732C113.545 58.6774 111.36 57.3048 109.66 57.1016C106.919 56.7738 103.082 57.2296 98.251 58.5957C93.4803 59.9447 88.0165 62.1002 82.1357 64.9092C70.3762 70.5263 57.2309 78.6187 45.0732 87.6084C32.9017 96.6084 21.8761 106.393 14.2715 115.341C10.4643 119.821 7.61893 123.97 5.8916 127.604Z" fill="#EE979B" stroke="#EE979B" stroke-width="8"/>
</svg>
