<svg width="6926" height="5776" viewBox="0 0 6926 5776" fill="none" xmlns="http://www.w3.org/2000/svg">
<ellipse cx="4817.04" cy="1568.09" rx="1130.15" ry="1165.69" fill="#FCF7F3"/>
<ellipse cx="3480.77" cy="3032.31" rx="2466.43" ry="1378.92" fill="#FCF7F3"/>
<ellipse cx="3438.12" cy="4333.05" rx="1855.15" ry="703.678" fill="#FCF7F3"/>
<ellipse cx="2094.74" cy="4745.3" rx="511.766" ry="703.678" fill="#FCF7F3"/>
<ellipse cx="4866.8" cy="4574.71" rx="511.766" ry="703.678" fill="#FCF7F3"/>
<path d="M3284.55 1547.87C3187.99 1449.82 3296.38 1040.82 3362.65 848.57C3572.81 1165.78 3573.28 1446.94 3547.24 1547.87C3499.91 1588.72 3381.11 1645.91 3284.55 1547.87Z" fill="#403634" stroke="#FCF7F3" stroke-width="540.197" stroke-linecap="round" stroke-linejoin="round"/>
<path d="M4703.32 2071.12C4745.96 2319.89 4818.46 2860.09 4767.29 3030.68" stroke="#FCF7F3" stroke-width="540.197" stroke-linecap="round" stroke-linejoin="round"/>
<path d="M1455.03 2042.68C1256.05 2149.3 1199.14 1879.2 1376.82 1822.33C1574.18 1759.17 1561.68 2007.16 1455.03 2042.68Z" stroke="#FCF7F3" stroke-width="540.197" stroke-linecap="round" stroke-linejoin="round"/>
<path d="M5520.72 1893.43C5328.81 1963.16 5343.03 1744.15 5456.76 1697.52C5540.58 1663.14 5627.34 1836.59 5520.72 1893.43Z" stroke="#FCF7F3" stroke-width="540.197" stroke-linecap="round" stroke-linejoin="round"/>
<path d="M5989.84 2106.66C6150.96 2066.39 6505.87 2010 6636.66 2106.66" stroke="#FCF7F3" stroke-width="540.197" stroke-linecap="round" stroke-linejoin="round"/>
<path d="M850.859 2092.44C741.872 2071.12 478.407 2041.27 296.446 2092.44" stroke="#FCF7F3" stroke-width="540.197" stroke-linecap="round" stroke-linejoin="round"/>
<path d="M907.723 2916.95C948.001 3066.22 1227.58 3417.35 2023.66 3627.74C1805.68 3594.57 1334.19 3627.74 1334.19 3805.44C1334.19 3983.13 1291.55 3990.24 1796.2 4125.29C1741.71 4563.61 1722.28 5451.62 2023.66 5497.11C2325.03 5542.6 2480.93 5227.01 2521.21 5063.53C2905.03 4994.82 3853.22 4898.62 4575.38 5063.53C4618.02 5208.05 4741.7 5497.11 4895.23 5497.11C5087.14 5497.11 5335.92 5333.63 5264.84 4125.29C5444.91 4141.87 5792.24 4101.12 5741.07 3805.44C5677.1 3435.83 5279.06 3627.74 4987.63 3549.55C5288.53 3502.17 5890.33 3309.31 5890.33 2916.95" stroke="#FCF7F3" stroke-width="540.197" stroke-linecap="round" stroke-linejoin="round"/>
<path d="M1256.01 1189.75C1504.78 621.12 2172.92 -237.509 2855.28 877.003C3056.66 827.249 3615.82 757.592 4241.31 877.003C4525.62 403.146 5196.6 -197.704 5606.02 1189.75" stroke="#FCF7F3" stroke-width="540.197" stroke-linecap="round" stroke-linejoin="round"/>
<path d="M5833.47 1644.65C5975.63 1568.83 6299.75 1432.84 6458.96 1495.39" stroke="#FCF7F3" stroke-width="540.197" stroke-linecap="round" stroke-linejoin="round"/>
<path d="M893.508 1729.95C779.782 1661.24 499.732 1516.71 289.34 1488.28" stroke="#FCF7F3" stroke-width="540.197" stroke-linecap="round" stroke-linejoin="round"/>
<circle cx="1391.06" cy="1964.5" r="63.9707" fill="#403634"/>
<path d="M1888.6 2327C2151.57 1865.01 2627.83 2014.26 2961.9 2227.49C3570.36 2439.75 3901.81 2321 4061.41 2263.82L4063.62 2263.03C4295.81 2080.59 5001.86 1872.1 5271.95 2263.02C5611.66 2754.7 4823.67 3145.14 4319.5 3258.14L4314 3259.37C3904.58 3351.13 3605.3 3418.21 2841.07 3258.14C2343.52 3153.92 1610.26 2816 1888.6 2327Z" stroke="#FCF7F3" stroke-width="540.197" stroke-linecap="round" stroke-linejoin="round"/>
<path d="M2443.02 2085.34C2428.81 2362.54 2417.43 2961.02 2485.67 3137.3" stroke="#FCF7F3" stroke-width="540.197" stroke-linecap="round" stroke-linejoin="round"/>
<path d="M3125.37 2348.33C3120.64 2585.26 3150.96 3103.18 3310.18 3279.46" stroke="#FCF7F3" stroke-width="540.197" stroke-linecap="round" stroke-linejoin="round"/>
<path d="M4042.29 2334.11C4070.72 2573.41 4119.06 3100.34 4084.94 3293.67" stroke="#FCF7F3" stroke-width="540.197" stroke-linecap="round" stroke-linejoin="round"/>
<path d="M2663.65 1398.18C2656.09 1289.62 2799.2 1033.92 2871.71 919.645C2838.61 1005.35 2923.72 1448.18 2833.88 1526.74C2744.04 1605.31 2673.11 1533.89 2663.65 1398.18Z" fill="#403634" stroke="#FCF7F3" stroke-width="540.197" stroke-linecap="round" stroke-linejoin="round"/>
<path d="M4141.51 1341.32C4149.07 1232.75 4005.96 977.06 3933.46 862.782C3966.55 948.49 3881.44 1391.31 3971.29 1469.88C4061.13 1548.45 4132.05 1477.02 4141.51 1341.32Z" fill="#403634" stroke="#FCF7F3" stroke-width="540.197" stroke-linecap="round" stroke-linejoin="round"/>
<path d="M1200.74 2645.47C1134 2662.61 959.067 2686.6 793.185 2645.47C655.134 2611.25 698.991 2516.62 757.432 2451.81C769.214 2438.75 781.589 2426.9 793.185 2416.99C821.788 2389.88 1043.44 2325.6 1200.74 2416.99C1326.58 2490.11 1253.17 2599.78 1200.74 2645.47Z" fill="#403634"/>
<path d="M1200.74 2645.47C1134 2662.61 959.067 2686.6 793.185 2645.47C655.134 2611.25 698.991 2516.62 757.432 2451.81C769.214 2438.75 781.589 2426.9 793.185 2416.99C821.788 2389.88 1043.44 2325.6 1200.74 2416.99C1326.58 2490.11 1253.17 2599.78 1200.74 2645.47Z" fill="#403634"/>
<path d="M1200.74 2645.47C1134 2662.61 959.067 2686.6 793.185 2645.47C655.134 2611.25 698.991 2516.62 757.432 2451.81C769.214 2438.75 781.589 2426.9 793.185 2416.99C821.788 2389.88 1043.44 2325.6 1200.74 2416.99C1326.58 2490.11 1253.17 2599.78 1200.74 2645.47Z" fill="#403634"/>
<path d="M1200.74 2645.47C1134 2662.61 959.067 2686.6 793.185 2645.47C655.134 2611.25 698.991 2516.62 757.432 2451.81C769.214 2438.75 781.589 2426.9 793.185 2416.99C821.788 2389.88 1043.44 2325.6 1200.74 2416.99C1326.58 2490.11 1253.17 2599.78 1200.74 2645.47Z" stroke="#FCF7F3" stroke-width="540.197" stroke-linecap="round" stroke-linejoin="round"/>
<path d="M6186.66 2621.37C6129.94 2635.24 5981.24 2654.66 5840.24 2621.37C5722.9 2593.66 5760.18 2517.06 5809.85 2464.6C5819.87 2454.02 5830.39 2444.42 5840.24 2436.41C5864.56 2414.46 6052.96 2362.42 6186.66 2436.41C6293.63 2495.59 6243.39 2607.5 6186.66 2621.37Z" fill="#403634"/>
<path d="M6186.66 2621.37C6129.94 2635.24 5981.24 2654.66 5840.24 2621.37C5722.9 2593.66 5760.18 2517.06 5809.85 2464.6C5819.87 2454.02 5830.39 2444.42 5840.24 2436.41C5864.56 2414.46 6052.96 2362.42 6186.66 2436.41C6293.63 2495.59 6243.39 2607.5 6186.66 2621.37Z" fill="#403634"/>
<path d="M6186.66 2621.37C6129.94 2635.24 5981.24 2654.66 5840.24 2621.37C5722.9 2593.66 5760.18 2517.06 5809.85 2464.6C5819.87 2454.02 5830.39 2444.42 5840.24 2436.41C5864.56 2414.46 6052.96 2362.42 6186.66 2436.41C6293.63 2495.59 6243.39 2607.5 6186.66 2621.37Z" fill="#403634"/>
<path d="M6186.66 2621.37C6129.94 2635.24 5981.24 2654.66 5840.24 2621.37C5722.9 2593.66 5760.18 2517.06 5809.85 2464.6C5819.87 2454.02 5830.39 2444.42 5840.24 2436.41C5864.56 2414.46 6052.96 2362.42 6186.66 2436.41C6293.63 2495.59 6243.39 2607.5 6186.66 2621.37Z" stroke="#FCF7F3" stroke-width="540.197" stroke-linecap="round" stroke-linejoin="round"/>
<path d="M3284.55 1491C3187.99 1392.96 3296.38 983.955 3362.65 791.708C3572.81 1108.91 3573.28 1390.08 3547.24 1491C3499.91 1531.86 3381.11 1589.05 3284.55 1491Z" fill="#DEDBD9" stroke="#DEDBD9" stroke-width="213.236" stroke-linecap="round" stroke-linejoin="round"/>
<path d="M4703.32 2014.26C4745.96 2263.04 4818.46 2803.23 4767.29 2973.82" stroke="#403634" stroke-width="213.236" stroke-linecap="round" stroke-linejoin="round"/>
<path d="M1455.03 1985.83C1256.05 2092.44 1199.14 1822.34 1376.82 1765.48C1574.18 1702.31 1561.68 1950.3 1455.03 1985.83Z" stroke="#403634" stroke-width="213.236" stroke-linecap="round" stroke-linejoin="round"/>
<path d="M2663.65 1341.33C2656.09 1232.76 2799.2 977.066 2871.71 862.789C2838.61 948.497 2923.72 1391.32 2833.88 1469.89C2744.04 1548.45 2673.11 1477.03 2663.65 1341.33Z" fill="#DEDBD9" stroke="#DEDBD9" stroke-width="213.236" stroke-linecap="round" stroke-linejoin="round"/>
<path d="M4141.51 1284.46C4149.07 1175.89 4005.96 920.197 3933.46 805.92C3966.55 891.628 3881.44 1334.45 3971.29 1413.02C4061.13 1491.58 4132.05 1420.16 4141.51 1284.46Z" fill="#DEDBD9" stroke="#DEDBD9" stroke-width="213.236" stroke-linecap="round" stroke-linejoin="round"/>
<path d="M5520.72 1836.57C5328.81 1906.3 5343.03 1687.29 5456.76 1640.65C5540.58 1606.28 5627.34 1779.73 5520.72 1836.57Z" stroke="#403634" stroke-width="213.236" stroke-linecap="round" stroke-linejoin="round"/>
<path d="M5989.84 2049.8C6150.96 2009.52 6505.87 1953.13 6636.66 2049.8" stroke="#403634" stroke-width="213.236" stroke-linecap="round" stroke-linejoin="round"/>
<path d="M850.859 2035.58C741.872 2014.26 478.407 1984.4 296.446 2035.58" stroke="#403634" stroke-width="213.236" stroke-linecap="round" stroke-linejoin="round"/>
<path d="M907.723 2860.09C948.001 3009.36 1227.58 3360.49 2023.66 3570.88C1805.68 3537.71 1334.19 3570.88 1334.19 3748.57C1334.19 3926.27 1291.55 3933.38 1796.2 4068.43C1741.71 4506.75 1722.28 5394.75 2023.66 5440.24C2325.03 5485.73 2480.93 5170.15 2521.21 5006.67C2905.03 4937.96 3853.22 4841.76 4575.38 5006.67C4618.02 5151.19 4741.7 5440.24 4895.23 5440.24C5087.14 5440.24 5335.92 5276.76 5264.84 4068.43C5444.91 4085.01 5792.24 4044.26 5741.07 3748.57C5677.1 3378.97 5279.06 3570.88 4987.63 3492.69C5288.53 3445.31 5890.33 3252.45 5890.33 2860.09" stroke="#403634" stroke-width="213.236" stroke-linecap="round" stroke-linejoin="round"/>
<path d="M1256.01 1132.89C1504.78 564.258 2172.92 -294.371 2855.28 820.141C3056.66 770.386 3615.82 700.73 4241.31 820.141C4525.62 346.284 5196.6 -254.566 5606.02 1132.89" stroke="#403634" stroke-width="213.236" stroke-linecap="round" stroke-linejoin="round"/>
<path d="M5833.47 1587.79C5975.63 1511.97 6299.75 1375.98 6458.96 1438.52" stroke="#403634" stroke-width="213.236" stroke-linecap="round" stroke-linejoin="round"/>
<path d="M893.508 1673.08C779.782 1604.37 499.732 1459.85 289.34 1431.42" stroke="#403634" stroke-width="213.236" stroke-linecap="round" stroke-linejoin="round"/>
<circle cx="1391.06" cy="1907.64" r="63.9707" fill="#403634"/>
<path d="M1888.6 2270.14C2151.57 1808.15 2627.83 1957.4 2961.9 2170.62C3570.36 2382.88 3901.81 2264.13 4061.41 2206.95L4063.62 2206.16C4295.81 2023.73 5001.86 1815.23 5271.95 2206.16C5611.66 2697.84 4823.67 3088.28 4319.5 3201.27L4314 3202.5C3904.58 3294.27 3605.3 3361.35 2841.07 3201.27C2343.52 3097.06 1610.26 2759.14 1888.6 2270.14Z" stroke="#403634" stroke-width="213.236" stroke-linecap="round" stroke-linejoin="round"/>
<path d="M2443.02 2028.47C2428.81 2305.68 2417.43 2904.16 2485.67 3080.44" stroke="#403634" stroke-width="213.236" stroke-linecap="round" stroke-linejoin="round"/>
<path d="M3125.37 2291.46C3120.64 2528.39 3150.96 3046.32 3310.18 3222.59" stroke="#403634" stroke-width="213.236" stroke-linecap="round" stroke-linejoin="round"/>
<path d="M4042.29 2277.25C4070.72 2516.54 4119.06 3043.47 4084.94 3236.81" stroke="#403634" stroke-width="213.236" stroke-linecap="round" stroke-linejoin="round"/>
<path d="M1200.74 2588.61C1134 2605.75 959.067 2629.74 793.185 2588.61C655.134 2554.39 698.991 2459.76 757.432 2394.95C769.214 2381.89 781.589 2370.03 793.185 2360.13C821.788 2333.02 1043.44 2268.74 1200.74 2360.13C1326.58 2433.24 1253.17 2542.92 1200.74 2588.61Z" fill="#EE979B"/>
<path d="M1200.74 2588.61C1134 2605.75 959.067 2629.74 793.185 2588.61C655.134 2554.39 698.991 2459.76 757.432 2394.95C769.214 2381.89 781.589 2370.03 793.185 2360.13C821.788 2333.02 1043.44 2268.74 1200.74 2360.13C1326.58 2433.24 1253.17 2542.92 1200.74 2588.61Z" fill="#EE979B"/>
<path d="M1200.74 2588.61C1134 2605.75 959.067 2629.74 793.185 2588.61C655.134 2554.39 698.991 2459.76 757.432 2394.95C769.214 2381.89 781.589 2370.03 793.185 2360.13C821.788 2333.02 1043.44 2268.74 1200.74 2360.13C1326.58 2433.24 1253.17 2542.92 1200.74 2588.61Z" fill="#EE979B"/>
<path d="M1200.74 2588.61C1134 2605.75 959.067 2629.74 793.185 2588.61C655.134 2554.39 698.991 2459.76 757.432 2394.95C769.214 2381.89 781.589 2370.03 793.185 2360.13C821.788 2333.02 1043.44 2268.74 1200.74 2360.13C1326.58 2433.24 1253.17 2542.92 1200.74 2588.61Z" stroke="#EE979B" stroke-width="213.236" stroke-linecap="round" stroke-linejoin="round"/>
<path d="M6186.66 2564.51C6129.94 2578.38 5981.24 2597.8 5840.24 2564.51C5722.9 2536.8 5760.18 2460.2 5809.85 2407.73C5819.87 2397.16 5830.39 2387.56 5840.24 2379.54C5864.56 2357.59 6052.96 2305.56 6186.66 2379.54C6293.63 2438.73 6243.39 2550.63 6186.66 2564.51Z" fill="#EE979B"/>
<path d="M6186.66 2564.51C6129.94 2578.38 5981.24 2597.8 5840.24 2564.51C5722.9 2536.8 5760.18 2460.2 5809.85 2407.73C5819.87 2397.16 5830.39 2387.56 5840.24 2379.54C5864.56 2357.59 6052.96 2305.56 6186.66 2379.54C6293.63 2438.73 6243.39 2550.63 6186.66 2564.51Z" fill="#EE979B"/>
<path d="M6186.66 2564.51C6129.94 2578.38 5981.24 2597.8 5840.24 2564.51C5722.9 2536.8 5760.18 2460.2 5809.85 2407.73C5819.87 2397.16 5830.39 2387.56 5840.24 2379.54C5864.56 2357.59 6052.96 2305.56 6186.66 2379.54C6293.63 2438.73 6243.39 2550.63 6186.66 2564.51Z" fill="#EE979B"/>
<path d="M6186.66 2564.51C6129.94 2578.38 5981.24 2597.8 5840.24 2564.51C5722.9 2536.8 5760.18 2460.2 5809.85 2407.73C5819.87 2397.16 5830.39 2387.56 5840.24 2379.54C5864.56 2357.59 6052.96 2305.56 6186.66 2379.54C6293.63 2438.73 6243.39 2550.63 6186.66 2564.51Z" stroke="#EE979B" stroke-width="213.236" stroke-linecap="round" stroke-linejoin="round"/>
</svg>
