<svg width="6893" height="6094" viewBox="0 0 6893 6094" fill="none" xmlns="http://www.w3.org/2000/svg">
<path d="M1442.39 2420.45C1226.21 2387.79 1207.2 2293.42 1224.71 2250.32C1338.8 2212.22 1622.53 2284.34 1652.56 2331.99C1667.57 2366.01 1658.56 2453.12 1442.39 2420.45Z" fill="#FCF7F3" stroke="#FCF7F3" stroke-width="555.904" stroke-linecap="round" stroke-linejoin="round"/>
<path d="M5705.84 2427.26C5525.7 2449.03 5510.69 2372.81 5525.7 2331.98C5567.73 2272.1 5673.32 2284.35 5720.85 2297.96C5790.91 2331.98 5885.99 2405.48 5705.84 2427.26Z" fill="#FCF7F3" stroke="#FCF7F3" stroke-width="555.904" stroke-linecap="round" stroke-linejoin="round"/>
<path d="M1802.66 1957.69C1802.66 1848.81 1922.76 1830.67 1982.81 1835.2C2032.85 1835.2 2134.43 1862.42 2140.44 1971.31C2146.44 2080.19 2017.84 2107.41 1952.78 2107.41C1902.74 2102.87 1802.66 2066.58 1802.66 1957.69Z" fill="#FCF7F3" stroke="#FCF7F3" stroke-width="555.904" stroke-linecap="round" stroke-linejoin="round"/>
<path d="M5097.84 1992.35C5097.84 1883.46 5217.93 1865.32 5277.98 1869.85C5328.02 1869.85 5429.61 1897.07 5435.61 2005.96C5441.62 2114.84 5313.01 2142.06 5247.96 2142.06C5197.92 2137.52 5097.84 2101.23 5097.84 1992.35Z" fill="#FCF7F3" stroke="#FCF7F3" stroke-width="555.904" stroke-linecap="round" stroke-linejoin="round"/>
<path d="M1172.15 1569.8C1357.3 821.24 1877.73 -377.824 2478.22 814.435C2858.52 775.872 3766.26 742.301 4354.74 916.512C4602.44 406.127 5228.45 -253.97 5750.87 1188.72" stroke="#FCF7F3" stroke-width="555.904" stroke-linecap="round" stroke-linejoin="round"/>
<path d="M1284.75 2699.46C1347.3 2762.97 1509.93 2896.81 1660.05 2924.03" stroke="#FCF7F3" stroke-width="555.904" stroke-linecap="round" stroke-linejoin="round"/>
<path d="M5255.48 2951.25C5398.09 2921.76 5717.85 2805.62 5855.97 2576.97" stroke="#FCF7F3" stroke-width="555.904" stroke-linecap="round" stroke-linejoin="round"/>
<path d="M5908.5 1518.04C6056.12 1474.94 6400.9 1414.6 6599.06 1518.04" stroke="#FCF7F3" stroke-width="555.904" stroke-linecap="round" stroke-linejoin="round"/>
<path d="M5968.56 2005.33C6048.62 2048.43 6276.31 2130.55 6546.53 2114.21" stroke="#FCF7F3" stroke-width="555.904" stroke-linecap="round" stroke-linejoin="round"/>
<path d="M293.943 2295.08C389.021 2236.1 649.732 2135.84 931.962 2206.61" stroke="#FCF7F3" stroke-width="555.904" stroke-linecap="round" stroke-linejoin="round"/>
<path d="M320.168 1665.74C458.881 1674.65 776.963 1721.42 939.593 1837.23" stroke="#FCF7F3" stroke-width="555.904" stroke-linecap="round" stroke-linejoin="round"/>
<path d="M5232.96 3223.45C5202.94 3116.84 5055.82 2868.22 4707.53 2726.67C4272.18 2549.74 3589.12 2787.92 3491.54 3005.68" stroke="#FCF7F3" stroke-width="219.436" stroke-linecap="round" stroke-linejoin="round"/>
<path d="M1727.61 4455.18C1687.57 4725.12 1655.55 5331.69 1847.7 5598.45C2087.9 5931.9 2290.56 5707.33 2335.6 5632.47C2380.64 5557.62 2440.69 5441.93 2418.17 5251.38C2978.62 5296.75 4174.6 5360.27 4474.84 5251.38C4549.9 5382.95 4716.54 5655.61 4782.59 5693.72C4865.16 5741.35 5082.83 5945.51 5308.02 5557.62C5488.16 5247.3 5443.13 4516.43 5398.09 4189.78" stroke="#FCF7F3" stroke-width="555.904" stroke-linecap="round" stroke-linejoin="round"/>
<path d="M1667.56 3883.55C1942.78 4312.28 2688.39 5218.72 3469.02 5414.71C3889.36 5265 4842.64 4732.83 5293 3801.89" stroke="#FCF7F3" stroke-width="219.436" stroke-linecap="round" stroke-linejoin="round"/>
<path d="M3033.67 2080.2C3016.15 2145.98 3018.66 2282.99 3168.78 2304.77C3318.9 2326.54 3431.49 2204.96 3469.02 2141.44C3516.56 2193.62 3643.16 2303.4 3769.26 2325.18C3926.89 2352.4 4016.96 2229.91 3979.43 2100.61" stroke="#FCF7F3" stroke-width="555.904" stroke-linecap="round" stroke-linejoin="round"/>
<path d="M5000.27 3400.39C5330.53 3117.29 5573.23 3300.58 5653.3 3427.61C5690.83 3570.51 5668.31 3845.44 5277.99 3801.89C4887.67 3758.33 4930.21 3516.07 5000.27 3400.39Z" fill="#FCF7F3" stroke="#FCF7F3" stroke-width="555.904" stroke-linecap="round" stroke-linejoin="round"/>
<path d="M1524.96 3155.4C1362.32 3293.77 1107.62 3614.07 1389.85 3788.28C1742.63 4006.04 2005.34 3686.2 1945.29 3550.1C1885.24 3414 1780.16 3257.48 1479.92 3325.53" stroke="#FCF7F3" stroke-width="555.904" stroke-linecap="round" stroke-linejoin="round"/>
<path d="M1630.02 3196.23C1642.53 3048.79 1787.65 2730.76 2268.04 2638.21C2868.53 2522.52 3634.15 2951.25 3589.12 3638.56" stroke="#FCF7F3" stroke-width="219.436" stroke-linecap="round" stroke-linejoin="round"/>
<path d="M2665.87 1528.48C2486.3 1588.93 2526.2 1085.17 2568.6 825.736L2770.63 848.405C2810.53 1049.91 2845.45 1468.03 2665.87 1528.48Z" fill="#FCF7F3" stroke="#FCF7F3" stroke-width="555.904" stroke-linecap="round" stroke-linejoin="round"/>
<path d="M3333.91 1563C3171.78 1492.22 3241.34 1057.15 3296.38 848.456C3428.49 821.236 3496.55 1213.66 3514.06 1413.28C3521.57 1492.68 3496.05 1633.77 3333.91 1563Z" fill="#FCF7F3" stroke="#FCF7F3" stroke-width="555.904" stroke-linecap="round" stroke-linejoin="round"/>
<path d="M4009.46 1440.51C3853.34 1326.18 4004.46 1034.47 4099.54 902.904C4207.62 930.125 4229.64 1127.47 4227.14 1222.75C4219.64 1342.97 4165.59 1554.84 4009.46 1440.51Z" fill="#FCF7F3" stroke="#FCF7F3" stroke-width="555.904" stroke-linecap="round" stroke-linejoin="round"/>
<ellipse cx="1960.29" cy="1535.78" rx="915.744" ry="1231.73" fill="#FCF7F3"/>
<ellipse cx="3461.51" cy="1916.87" rx="915.744" ry="973.134" fill="#FCF7F3"/>
<ellipse cx="3941.91" cy="1807.99" rx="915.744" ry="973.134" fill="#FCF7F3"/>
<ellipse cx="3026.16" cy="1794.38" rx="915.744" ry="973.134" fill="#FCF7F3"/>
<ellipse cx="4947.72" cy="1671.88" rx="915.744" ry="1177.29" fill="#FCF7F3"/>
<ellipse cx="5060.31" cy="4972.37" rx="367.799" ry="721.344" fill="#FCF7F3"/>
<ellipse cx="4730.04" cy="5081.25" rx="367.799" ry="476.359" fill="#FCF7F3"/>
<ellipse cx="1990.31" cy="4979.17" rx="420.342" ry="660.098" fill="#FCF7F3"/>
<ellipse cx="2185.47" cy="5244.58" rx="420.342" ry="544.411" fill="#FCF7F3"/>
<ellipse cx="299.692" cy="736.593" rx="299.692" ry="736.593" transform="matrix(0.991461 0.130404 -0.158009 0.987438 1562.56 3638.57)" fill="#FCF7F3"/>
<ellipse cx="2583.29" cy="3611.34" rx="1013.32" ry="993.549" fill="#F4BBBE"/>
<ellipse cx="3393.96" cy="4393.93" rx="1043.35" ry="973.134" fill="#F4BBBE"/>
<ellipse cx="4294.69" cy="3699.82" rx="923.25" ry="1095.63" fill="#F4BBBE"/>
<ellipse cx="1645.03" cy="3563.71" rx="285.232" ry="210.959" fill="#FCF7F3"/>
<ellipse cx="5308.01" cy="3522.88" rx="285.232" ry="210.959" fill="#FCF7F3"/>
<path d="M1442.39 2414.26C1226.21 2381.6 1207.2 2287.23 1224.71 2244.13C1338.8 2206.02 1622.53 2278.15 1652.56 2325.79C1667.57 2359.82 1658.56 2446.93 1442.39 2414.26Z" stroke="#EE979B" stroke-width="219.436" stroke-linecap="round" stroke-linejoin="round"/>
<path d="M5705.84 2421.06C5525.7 2442.84 5510.69 2366.62 5525.7 2325.79C5567.73 2265.91 5673.32 2278.16 5720.85 2291.77C5790.91 2325.79 5885.99 2399.29 5705.84 2421.06Z" stroke="#EE979B" stroke-width="219.436" stroke-linecap="round" stroke-linejoin="round"/>
<path d="M1802.66 1951.5C1802.66 1842.62 1922.76 1824.48 1982.81 1829.01C2032.85 1829.01 2134.43 1856.23 2140.44 1965.12C2146.44 2074 2017.84 2101.22 1952.78 2101.22C1902.74 2096.68 1802.66 2060.39 1802.66 1951.5Z" fill="#403634" stroke="#403634" stroke-width="219.436" stroke-linecap="round" stroke-linejoin="round"/>
<path d="M2665.87 1522.28C2486.3 1582.73 2526.2 1078.97 2568.6 819.538L2770.63 842.207C2810.53 1043.71 2845.45 1461.83 2665.87 1522.28Z" fill="#DEDBD9" stroke="#DEDBD9" stroke-width="219.436" stroke-linecap="round" stroke-linejoin="round"/>
<path d="M3333.91 1556.8C3171.78 1486.03 3241.34 1050.96 3296.38 842.265C3428.49 815.044 3496.55 1207.47 3514.06 1407.09C3521.57 1486.48 3496.05 1627.58 3333.91 1556.8Z" fill="#DEDBD9" stroke="#DEDBD9" stroke-width="219.436" stroke-linecap="round" stroke-linejoin="round"/>
<path d="M4009.46 1434.31C3853.34 1319.99 4004.46 1028.27 4099.54 896.706C4207.62 923.927 4229.64 1121.28 4227.14 1216.55C4219.64 1336.77 4165.59 1548.64 4009.46 1434.31Z" fill="#DEDBD9" stroke="#DEDBD9" stroke-width="219.436" stroke-linecap="round" stroke-linejoin="round"/>
<path d="M5097.84 1986.15C5097.84 1877.27 5217.93 1859.13 5277.98 1863.66C5328.02 1863.66 5429.61 1890.88 5435.61 1999.77C5441.62 2108.65 5313.01 2135.87 5247.96 2135.87C5197.92 2131.33 5097.84 2095.04 5097.84 1986.15Z" fill="#403634" stroke="#403634" stroke-width="219.436" stroke-linecap="round" stroke-linejoin="round"/>
<path d="M1172.15 1563.61C1357.3 815.048 1877.73 -384.016 2478.22 808.243C2858.52 769.681 3766.26 736.109 4354.74 910.321C4602.44 399.936 5228.45 -260.162 5750.87 1182.53" stroke="#403634" stroke-width="219.436" stroke-linecap="round" stroke-linejoin="round"/>
<path d="M1284.75 2693.27C1347.3 2756.78 1509.93 2890.62 1660.05 2917.84" stroke="#403634" stroke-width="219.436" stroke-linecap="round" stroke-linejoin="round"/>
<path d="M5255.48 2945.05C5398.09 2915.56 5717.85 2799.42 5855.97 2570.77" stroke="#403634" stroke-width="219.436" stroke-linecap="round" stroke-linejoin="round"/>
<path d="M5908.5 1511.84C6056.12 1468.74 6400.9 1408.4 6599.06 1511.84" stroke="#403634" stroke-width="219.436" stroke-linecap="round" stroke-linejoin="round"/>
<path d="M5968.56 1999.14C6048.62 2042.24 6276.31 2124.36 6546.53 2108.02" stroke="#403634" stroke-width="219.436" stroke-linecap="round" stroke-linejoin="round"/>
<path d="M293.943 2288.89C389.021 2229.91 649.732 2129.65 931.962 2200.42" stroke="#403634" stroke-width="219.436" stroke-linecap="round" stroke-linejoin="round"/>
<path d="M320.168 1659.55C458.881 1668.45 776.963 1715.22 939.593 1831.03" stroke="#403634" stroke-width="219.436" stroke-linecap="round" stroke-linejoin="round"/>
<path d="M5232.96 3217.26C5202.94 3110.64 5055.82 2862.03 4707.53 2720.48C4272.18 2543.55 3589.12 2781.73 3491.54 2999.49" stroke="#EE979B" stroke-width="219.436" stroke-linecap="round" stroke-linejoin="round"/>
<path d="M1727.61 4448.99C1687.57 4718.92 1655.55 5325.49 1847.7 5592.25C2087.9 5925.7 2290.56 5701.13 2335.6 5626.27C2380.64 5551.42 2440.69 5435.73 2418.17 5245.19C2978.62 5290.55 4174.6 5354.07 4474.84 5245.19C4549.9 5376.75 4716.54 5649.41 4782.59 5687.52C4865.16 5735.16 5082.83 5939.31 5308.02 5551.42C5488.16 5241.1 5443.13 4510.23 5398.09 4183.59" stroke="#403634" stroke-width="219.436" stroke-linecap="round" stroke-linejoin="round"/>
<ellipse cx="3446.51" cy="5244.58" rx="405.329" ry="122.492" fill="#F4BBBE"/>
<path d="M1667.56 3877.36C1942.78 4306.08 2688.39 5212.52 3469.02 5408.51C3889.36 5258.8 4842.64 4726.64 5293 3795.7" stroke="#EE979B" stroke-width="219.436" stroke-linecap="round" stroke-linejoin="round"/>
<path d="M3033.67 2074C3016.15 2139.78 3018.66 2276.79 3168.78 2298.57C3318.9 2320.34 3431.49 2198.76 3469.02 2135.24C3516.56 2187.42 3643.16 2297.21 3769.26 2318.98C3926.89 2346.2 4016.96 2223.71 3979.43 2094.41" stroke="#403634" stroke-width="219.436" stroke-linecap="round" stroke-linejoin="round"/>
<path d="M5000.27 3394.19C5330.53 3111.1 5573.23 3294.39 5653.3 3421.41C5690.83 3564.32 5668.31 3839.25 5277.99 3795.69C4887.67 3752.14 4930.21 3509.88 5000.27 3394.19Z" stroke="#403634" stroke-width="219.436" stroke-linecap="round" stroke-linejoin="round"/>
<path d="M1524.96 3149.21C1362.32 3287.58 1107.62 3607.88 1389.85 3782.09C1742.63 3999.85 2005.34 3680.01 1945.29 3543.91C1885.24 3407.8 1780.16 3251.29 1479.92 3319.34" stroke="#403634" stroke-width="219.436" stroke-linecap="round" stroke-linejoin="round"/>
<path d="M1630.02 3190.05C1642.53 3042.6 1787.65 2724.58 2268.04 2632.03C2868.53 2516.34 3634.15 2945.06 3589.12 3632.38" stroke="#EE979B" stroke-width="219.436" stroke-linecap="round" stroke-linejoin="round"/>
</svg>
