<svg width="13604" height="6120" viewBox="0 0 13604 6120" fill="none" xmlns="http://www.w3.org/2000/svg">
<ellipse cx="5183.47" cy="1543.9" rx="1254.69" ry="1009.36" fill="#FCF7F3"/>
<ellipse cx="7896.12" cy="2153.72" rx="1471.98" ry="1226.65" fill="#FCF7F3"/>
<ellipse cx="8210.57" cy="1904.24" rx="1100.48" ry="1226.65" transform="rotate(25.3835 8210.57 1904.24)" fill="#FCF7F3"/>
<ellipse cx="5663.45" cy="4261.95" rx="779.405" ry="1226.65" transform="rotate(25.3835 5663.45 4261.95)" fill="#FCF7F3"/>
<ellipse cx="5481.22" cy="3266.62" rx="779.405" ry="1226.65" transform="rotate(25.3835 5481.22 3266.62)" fill="#FCF7F3"/>
<ellipse cx="6504.6" cy="4121.76" rx="779.405" ry="1226.65" transform="rotate(25.3835 6504.6 4121.76)" fill="#FCF7F3"/>
<ellipse cx="7247.59" cy="4388.12" rx="779.405" ry="1226.65" transform="rotate(25.3835 7247.59 4388.12)" fill="#FCF7F3"/>
<ellipse cx="9370.04" cy="4011.37" rx="306.152" ry="381.135" transform="rotate(25.3835 9370.04 4011.37)" fill="#FCF7F3"/>
<ellipse cx="9146.65" cy="5059.23" rx="187.325" ry="233.204" transform="rotate(25.3835 9146.65 5059.23)" fill="#FCF7F3"/>
<ellipse cx="13015.9" cy="5227.45" rx="187.325" ry="233.204" transform="rotate(25.3835 13015.9 5227.45)" fill="#FCF7F3"/>
<ellipse cx="5435.81" cy="2314.94" rx="1254.69" ry="1009.36" fill="#FCF7F3"/>
<path d="M5982.55 1691.1C5825.54 1663.06 5917.13 1310.25 5982.55 1137.36C6055.44 1137.36 6111.05 1310.25 6129.74 1396.7C6146.1 1506.52 6139.56 1719.14 5982.55 1691.1Z" fill="#FCF7F3" stroke="#FCF7F3" stroke-width="532.716" stroke-linecap="round" stroke-linejoin="round"/>
<path d="M6557.31 1747.17C6428.34 1618.2 6540.96 1282.22 6613.39 1130.34C6736.76 1130.34 6762.92 1354.65 6760.59 1466.8C6746.57 1613.99 6686.29 1876.15 6557.31 1747.17Z" fill="#FCF7F3" stroke="#FCF7F3" stroke-width="532.716" stroke-linecap="round" stroke-linejoin="round"/>
<path d="M7202.19 1109.32C7097.05 1282.22 6938.63 1647.64 7146.11 1726.15C7405.46 1824.28 7328.36 1053.24 7202.19 1109.32Z" fill="#FCF7F3" stroke="#FCF7F3" stroke-width="532.716" stroke-linecap="round" stroke-linejoin="round"/>
<path d="M12942.9 5265.9C12851.8 5251.89 12970.9 5237.87 13020 5202.82C13020 5198.15 13035.4 5204.22 13097.1 5265.9C13174.2 5343.01 13034 5279.92 12942.9 5265.9Z" stroke="#FCF7F3" stroke-width="532.716" stroke-linecap="round" stroke-linejoin="round"/>
<path d="M12648.5 4635.05C12721.4 4573.37 12842.4 4609.35 12893.8 4635.05C12882.2 4642.06 12851.8 4665.9 12823.8 4705.15C12795.7 4744.4 12868.1 4772.91 12907.9 4782.25C12898.5 4782.25 12868.6 4789.26 12823.8 4817.3C12767.7 4852.35 12634.5 4747.21 12508.3 4831.32C12382.2 4915.43 12333.1 4817.3 12312.1 4782.25C12291 4747.21 12557.4 4712.16 12648.5 4635.05Z" fill="#FCF7F3" stroke="#FCF7F3" stroke-width="532.716" stroke-linecap="round" stroke-linejoin="round"/>
<path d="M9276.97 4144.4C9262.96 4074.3 9290.99 4137.39 9340.06 4067.29C9368.1 4067.29 9365.76 4142.06 9361.09 4179.45C9337.72 4191.13 9288.19 4200.47 9276.97 4144.4Z" fill="#FCF7F3" stroke="#FCF7F3" stroke-width="532.716" stroke-linecap="round" stroke-linejoin="round"/>
<path d="M9157.82 5076.65C9236.33 5065.43 9246.61 5025.25 9241.94 5006.55C9283.99 5027.58 9276.98 5076.65 9199.88 5146.74C9122.78 5216.84 9059.69 5090.67 9157.82 5076.65Z" stroke="#FCF7F3" stroke-width="532.716" stroke-linecap="round" stroke-linejoin="round"/>
<path d="M11716.3 5644.41C11581.7 5638.8 11510.6 5553.29 11492 5511.23C11599.4 5511.23 11845.2 5504.22 11968.6 5476.18C12122.8 5441.13 12080.7 5511.23 12305 5511.23C12529.3 5511.23 12522.3 5511.23 12571.4 5532.26C12620.5 5553.29 12627.5 5539.27 12774.7 5574.31C12921.9 5609.36 13083.1 5560.29 13062.1 5700.48C13045.2 5812.63 12237.3 5756.56 11835.4 5714.5C11851.8 5693.47 11850.8 5650.02 11716.3 5644.41Z" fill="#FCF7F3" stroke="#FCF7F3" stroke-width="532.716" stroke-linecap="round" stroke-linejoin="round"/>
<path d="M11029.3 5069.64C11206.9 4959.83 11569 4768.24 11597.1 4880.39C11632.1 5020.58 11155.5 5230.86 11029.3 5265.91C11375.1 5146.75 12770.2 4982.55 12452.2 5216.84C12185.9 5413.1 11632.1 5515.91 11029.3 5511.24" stroke="#FCF7F3" stroke-width="532.716" stroke-linecap="round" stroke-linejoin="round"/>
<path d="M11351.8 4557.95C11334.9 4479.45 10952.2 4740.2 10763 4880.39C10837.7 4908.42 10995.7 4947.68 11029.3 4880.39C11071.4 4796.27 11372.8 4656.09 11351.8 4557.95Z" fill="#FCF7F3" stroke="#FCF7F3" stroke-width="532.716" stroke-linecap="round" stroke-linejoin="round"/>
<path d="M9942.87 5406.09C9905.49 5487.87 9809.69 5654.23 9725.58 5665.44" stroke="#FCF7F3" stroke-width="532.716" stroke-linecap="round" stroke-linejoin="round"/>
<path d="M10258.3 5658.43C10196.6 5619.18 9933.53 5642.07 9809.69 5658.43C9893.81 5441.14 10006 5420.11 10104.1 5336C10202.2 5251.89 10314.4 5336 10419.5 5314.97C10503.6 5298.15 10534 5167.77 10538.7 5104.69C10535.2 4508.89 10685.9 4880.39 10756 4922.44C10826.1 4964.5 10973.3 4838.33 10973.3 4859.36C10973.3 4880.39 11022.3 4929.45 11071.4 4999.55C11120.5 5069.64 10545.7 5293.94 10756 5237.86C10924.2 5193 11097.1 5219.17 11162.5 5237.86C11017.7 5284.59 10777 5386.46 10973.3 5420.11C11218.6 5462.17 11239.6 5518.24 11225.6 5532.26C11214.4 5543.48 11132.1 5546.28 11092.4 5546.28H10882.1C10826.1 5539.27 10734.9 5551.89 10819.1 5658.43C10903.2 5764.97 10751.3 5730.86 10664.8 5700.48H10419.5C10391.5 5702.82 10320 5697.68 10258.3 5658.43Z" fill="#FCF7F3" stroke="#FCF7F3" stroke-width="532.716" stroke-linecap="round" stroke-linejoin="round"/>
<path d="M9094.73 5525.25C9283.98 5525.25 9689.13 5518.24 9795.67 5490.21C9928.85 5455.16 9606.42 5693.48 9199.87 5609.37" stroke="#FCF7F3" stroke-width="532.716" stroke-linecap="round" stroke-linejoin="round"/>
<path d="M9858.76 3541.59C10034 3857.01 10362 4608.42 10272.3 5090.67" stroke="#FCF7F3" stroke-width="532.716" stroke-linecap="round" stroke-linejoin="round"/>
<path d="M9599.41 3653.74C9765.29 4139.72 10041 5181.79 9816.7 5462.17" stroke="#FCF7F3" stroke-width="532.716" stroke-linecap="round" stroke-linejoin="round"/>
<path d="M9347.07 3170.09C9657.82 3553.27 10234.5 4520.1 10055 5321.98" stroke="#FCF7F3" stroke-width="532.716" stroke-linecap="round" stroke-linejoin="round"/>
<path d="M9073.7 3008.87C9421.84 3305.6 10083.1 4193.46 9942.87 5371.05" stroke="#FCF7F3" stroke-width="532.716" stroke-linecap="round" stroke-linejoin="round"/>
<path d="M8491.92 2784.57C9118.09 2859.34 10380.3 3430.84 10419.5 5118.71" stroke="#FCF7F3" stroke-width="532.716" stroke-linecap="round" stroke-linejoin="round"/>
<path d="M8246.58 2833.64C8246.58 2833.64 9473.23 1901.38 10692.9 4908.43" stroke="#FCF7F3" stroke-width="532.716" stroke-linecap="round" stroke-linejoin="round"/>
<path d="M725.478 5336C800.245 5375.72 982.022 5445.35 1111 5406.1" stroke="#FCF7F3" stroke-width="532.716" stroke-linecap="round" stroke-linejoin="round"/>
<path d="M1475.49 5469.18C1589.98 5438.8 1886.24 5413.1 2155.4 5553.29" stroke="#FCF7F3" stroke-width="532.716" stroke-linecap="round" stroke-linejoin="round"/>
<path d="M977.815 5742.55C1052.58 5639.74 1458.66 5495.81 2484.84 5742.55" stroke="#FCF7F3" stroke-width="532.716" stroke-linecap="round" stroke-linejoin="round"/>
<path d="M1061.93 5784.6C1358.66 5768.25 2004 5745.35 2211.47 5784.6" stroke="#FCF7F3" stroke-width="532.716" stroke-linecap="round" stroke-linejoin="round"/>
<path d="M318.935 5595.35C356.318 5578.99 467.534 5556.1 613.33 5595.35" stroke="#FCF7F3" stroke-width="532.716" stroke-linecap="round" stroke-linejoin="round"/>
<path d="M669.407 5321.98C821.278 5314.97 1136.23 5331.79 1181.1 5455.16" stroke="#FCF7F3" stroke-width="532.716" stroke-linecap="round" stroke-linejoin="round"/>
<path d="M942.771 4978.52C989.5 4948.15 1108.19 4905.62 1209.13 4978.52" stroke="#FCF7F3" stroke-width="532.716" stroke-linecap="round" stroke-linejoin="round"/>
<path d="M2702.14 5616.38C2910.08 5459.83 3404.48 5149.55 3718.5 5160.76" stroke="#FCF7F3" stroke-width="532.716" stroke-linecap="round" stroke-linejoin="round"/>
<path d="M2737.18 5623.39C2959.15 5497.22 3459.15 5249.08 3683.45 5265.9" stroke="#FCF7F3" stroke-width="532.716" stroke-linecap="round" stroke-linejoin="round"/>
<path d="M2786.25 5630.4C3001.2 5550.95 3579.72 5413.1 4174.11 5497.22" stroke="#FCF7F3" stroke-width="532.716" stroke-linecap="round" stroke-linejoin="round"/>
<path d="M3073.63 5735.54C3264.64 5682.64 3694.68 5608.59 3886.72 5735.54" stroke="#FCF7F3" stroke-width="532.716" stroke-linecap="round" stroke-linejoin="round"/>
<path d="M2912.43 5644.41C3134.39 5571.98 3655.43 5456.56 3963.84 5574.32" stroke="#FCF7F3" stroke-width="532.716" stroke-linecap="round" stroke-linejoin="round"/>
<path d="M1307.26 5069.64C1531.57 5097.68 2134.38 5242.07 2751.21 5595.35" stroke="#FCF7F3" stroke-width="532.716" stroke-linecap="round" stroke-linejoin="round"/>
<path d="M1342.31 5174.78C1678.76 5345.34 2416.15 5668.24 2674.1 5595.34" stroke="#FCF7F3" stroke-width="532.716" stroke-linecap="round" stroke-linejoin="round"/>
<path d="M1720.83 4943.47C1889.05 5013.56 2254.94 5212.63 2372.7 5448.15" stroke="#FCF7F3" stroke-width="532.716" stroke-linecap="round" stroke-linejoin="round"/>
<path d="M2519.9 5181.79C2491.86 4941.14 2501.67 4368.7 2765.23 4004.21" stroke="#FCF7F3" stroke-width="532.716" stroke-linecap="round" stroke-linejoin="round"/>
<path d="M2814.29 3821.96C2856.35 3665.42 3055.42 3258.41 3515.24 2882.7" stroke="#FCF7F3" stroke-width="532.716" stroke-linecap="round" stroke-linejoin="round"/>
<path d="M2141.39 5034.59C2223.17 4316.8 2777.85 2804.41 4342.35 2497.18" stroke="#FCF7F3" stroke-width="532.716" stroke-linecap="round" stroke-linejoin="round"/>
<path d="M4608.7 2574.3C4012.9 2378.02 2751.2 3730.84 2751.2 4761.23" stroke="#FCF7F3" stroke-width="532.716" stroke-linecap="round" stroke-linejoin="round"/>
<path d="M4475.52 2497.18C3907.75 2560.27 2728.77 3198.12 2554.93 5244.88" stroke="#FCF7F3" stroke-width="532.716" stroke-linecap="round" stroke-linejoin="round"/>
<path d="M4468.51 2525.22C3785.7 2864.77 2389.58 3878.47 2267.55 5216.84" stroke="#FCF7F3" stroke-width="532.716" stroke-linecap="round" stroke-linejoin="round"/>
<path d="M4706.83 2357C4517.58 2399.06 4583 2438.78 4622.72 2455.13C4755.9 2413.07 4840.01 2602.33 4825.99 2497.19C4814.78 2413.07 4755.9 2356.99 4706.83 2357Z" stroke="#FCF7F3" stroke-width="532.716" stroke-linecap="round" stroke-linejoin="round"/>
<path d="M8092.38 2616.34C8047.52 2627.56 8059.67 2719.15 8071.36 2763.54C8134.44 2679.43 8239.58 2700.45 8239.58 2693.44C8239.58 2686.44 8148.46 2602.32 8092.38 2616.34Z" stroke="#FCF7F3" stroke-width="532.716" stroke-linecap="round" stroke-linejoin="round"/>
<path d="M3403.08 1670.07C3524.58 1642.03 3813.84 1625.21 3998.88 1782.22" stroke="#FCF7F3" stroke-width="532.716" stroke-linecap="round" stroke-linejoin="round"/>
<path d="M3347.01 2153.72C3510.57 2130.36 3864.31 2127.09 3970.85 2300.92" stroke="#FCF7F3" stroke-width="532.716" stroke-linecap="round" stroke-linejoin="round"/>
<path d="M9269.97 2118.67C9349.41 2041.57 9586.8 1899.98 9900.82 1950.44" stroke="#FCF7F3" stroke-width="532.716" stroke-linecap="round" stroke-linejoin="round"/>
<path d="M9206.88 2630.37C9330.72 2583.64 9626.05 2518.22 9816.7 2630.37" stroke="#FCF7F3" stroke-width="532.716" stroke-linecap="round" stroke-linejoin="round"/>
<path d="M5211.51 3268.22C4891.88 2713.07 5597.03 2415.41 5989.55 2335.97C6431.15 2265.88 6676.48 2327.17 6963.87 2371.01C7625.55 2471.96 7790.98 2805.6 7826.02 2966.82C7826.02 3050.93 7890.29 3213.7 7580.7 3296.26C7265.27 3380.37 6837.7 3242.52 6634.42 3107C6554.98 3036.91 6307.78 2951.39 5954.51 3170.09C5601.23 3388.78 5311.98 3326.63 5211.51 3268.22Z" stroke="#FCF7F3" stroke-width="532.716" stroke-linecap="round" stroke-linejoin="round"/>
<path d="M4251.23 2917.75C4295.62 3107 4593.29 3499.53 5428.81 3555.6C5113.39 3490.18 4476.93 3429.43 4454.5 3709.81C4432.07 3990.19 4818.99 4069.63 5015.26 4074.3C4917.12 4216.83 4750.3 4556.55 4868.06 4775.24C4720.86 4805.62 4454.5 4921.04 4566.65 5139.73C4678.8 5358.43 5267.6 5296.28 5547.97 5237.87C5872.74 5282.26 6628.83 5337.4 7055 5202.82C7005.93 5380.39 6975.09 5721.52 7244.25 5665.44C7580.71 5595.35 7748.93 5518.24 7861.08 5202.82C7950.8 4950.48 7963.89 4373.37 7959.21 4116.36C8218.56 4053.27 8691 3828.97 8505.95 3436.44C8283.98 3504.2 7754.54 3624.3 7412.48 3562.61C7805.01 3581.31 8623.71 3538.78 8758.29 3219.15" stroke="#FCF7F3" stroke-width="532.716" stroke-linecap="round" stroke-linejoin="round"/>
<path d="M4265.23 1270.54C4611.03 574.268 5433 -438.36 5954.5 1081.28C6340.02 1062.59 7183.96 1053.24 7475.55 1165.39C7921.82 613.986 8860.61 -72.4702 9045.66 1592.97" stroke="#FCF7F3" stroke-width="532.716" stroke-linecap="round" stroke-linejoin="round"/>
<path d="M4573.66 2609.33C3990.18 2843.99 2794.81 3744.47 2681.11 5469.18" stroke="#FCF7F3" stroke-width="532.716" stroke-linecap="round" stroke-linejoin="round"/>
<path d="M12066.7 5097.68C12188.2 5114.03 12428.4 5149.55 12417.2 5160.76" stroke="#FCF7F3" stroke-width="532.716" stroke-linecap="round" stroke-linejoin="round"/>
<path d="M8667.16 2777.56C8863.42 2985.51 9254.55 3485.51 9248.94 3821.96" stroke="#FCF7F3" stroke-width="532.716" stroke-linecap="round" stroke-linejoin="round"/>
<path d="M8611.09 2805.6C8816.7 3039.25 9233.53 3565.42 9255.96 3800.94" stroke="#FCF7F3" stroke-width="532.716" stroke-linecap="round" stroke-linejoin="round"/>
<path d="M6424.14 4719.17C6342.36 4779.92 6171.8 4912.63 6143.76 4957.49" stroke="#DEDBD9" stroke-width="140.188" stroke-linecap="round" stroke-linejoin="round"/>
<path d="M6129.75 4712.16C6197.51 4786.93 6349.85 4936.46 6417.14 4936.46" stroke="#DEDBD9" stroke-width="140.188" stroke-linecap="round" stroke-linejoin="round"/>
<ellipse cx="5639.09" cy="2931.77" rx="560.754" ry="392.528" fill="#F4BBBE"/>
<ellipse cx="6655.46" cy="2658.4" rx="1058.42" ry="357.481" fill="#F4BBBE"/>
<ellipse cx="7174.15" cy="2910.74" rx="567.763" ry="357.481" fill="#F4BBBE"/>
<ellipse cx="7356.4" cy="3071.95" rx="469.631" ry="308.415" fill="#FED5D7"/>
<path d="M5982.55 1691.1C5825.54 1663.06 5917.13 1310.25 5982.55 1137.36C6055.44 1137.36 6111.05 1310.25 6129.74 1396.7C6146.1 1506.52 6139.56 1719.14 5982.55 1691.1Z" fill="#DEDBD9" stroke="#DEDBD9" stroke-width="140.188" stroke-linecap="round" stroke-linejoin="round"/>
<path d="M6557.31 1747.17C6428.34 1618.2 6540.96 1282.22 6613.39 1130.34C6736.76 1130.34 6762.92 1354.65 6760.59 1466.8C6746.57 1613.99 6686.29 1876.15 6557.31 1747.17Z" fill="#DEDBD9" stroke="#DEDBD9" stroke-width="140.188" stroke-linecap="round" stroke-linejoin="round"/>
<path d="M7202.19 1109.32C7097.05 1282.22 6938.63 1647.64 7146.11 1726.15C7405.46 1824.28 7328.36 1053.24 7202.19 1109.32Z" fill="#DEDBD9" stroke="#DEDBD9" stroke-width="140.188" stroke-linecap="round" stroke-linejoin="round"/>
<path d="M12942.9 5265.9C12851.8 5251.89 12970.9 5237.87 13020 5202.82C13020 5198.15 13035.4 5204.22 13097.1 5265.9C13174.2 5343.01 13034 5279.92 12942.9 5265.9Z" stroke="#97B4EE" stroke-width="140.188" stroke-linecap="round" stroke-linejoin="round"/>
<path d="M12648.5 4635.05C12721.4 4573.37 12842.4 4609.35 12893.8 4635.05C12882.2 4642.06 12851.8 4665.9 12823.8 4705.15C12795.7 4744.4 12868.1 4772.91 12907.9 4782.25C12898.5 4782.25 12868.6 4789.26 12823.8 4817.3C12767.7 4852.35 12634.5 4747.21 12508.3 4831.32C12382.2 4915.43 12333.1 4817.3 12312.1 4782.25C12291 4747.21 12557.4 4712.16 12648.5 4635.05Z" fill="#97B4EE" stroke="#97B4EE" stroke-width="140.188" stroke-linecap="round" stroke-linejoin="round"/>
<path d="M9276.97 4144.4C9262.96 4074.3 9290.99 4137.39 9340.06 4067.29C9368.1 4067.29 9365.76 4142.06 9361.09 4179.45C9337.72 4191.13 9288.19 4200.47 9276.97 4144.4Z" fill="#97B4EE" stroke="#97B4EE" stroke-width="140.188" stroke-linecap="round" stroke-linejoin="round"/>
<path d="M9157.82 5076.65C9236.33 5065.43 9246.61 5025.25 9241.94 5006.55C9283.99 5027.58 9276.98 5076.65 9199.88 5146.74C9122.78 5216.84 9059.69 5090.67 9157.82 5076.65Z" stroke="#97B4EE" stroke-width="140.188" stroke-linecap="round" stroke-linejoin="round"/>
<path d="M11716.3 5644.41C11581.7 5638.8 11510.6 5553.29 11492 5511.23C11599.4 5511.23 11845.2 5504.22 11968.6 5476.18C12122.8 5441.13 12080.7 5511.23 12305 5511.23C12529.3 5511.23 12522.3 5511.23 12571.4 5532.26C12620.5 5553.29 12627.5 5539.27 12774.7 5574.31C12921.9 5609.36 13083.1 5560.29 13062.1 5700.48C13045.2 5812.63 12237.3 5756.56 11835.4 5714.5C11851.8 5693.47 11850.8 5650.02 11716.3 5644.41Z" fill="#97B4EE" stroke="#97B4EE" stroke-width="140.188" stroke-linecap="round" stroke-linejoin="round"/>
<path d="M11029.3 5069.64C11206.9 4959.83 11569 4768.24 11597.1 4880.39C11632.1 5020.58 11155.5 5230.86 11029.3 5265.91C11375.1 5146.75 12770.2 4982.55 12452.2 5216.84C12185.9 5413.1 11632.1 5515.91 11029.3 5511.24" stroke="#97B4EE" stroke-width="140.188" stroke-linecap="round" stroke-linejoin="round"/>
<path d="M11351.8 4557.95C11334.9 4479.45 10952.2 4740.2 10763 4880.39C10837.7 4908.42 10995.7 4947.68 11029.3 4880.39C11071.4 4796.27 11372.8 4656.09 11351.8 4557.95Z" fill="#97B4EE" stroke="#97B4EE" stroke-width="140.188" stroke-linecap="round" stroke-linejoin="round"/>
<path d="M9942.87 5406.09C9905.49 5487.87 9809.69 5654.23 9725.58 5665.44" stroke="#97B4EE" stroke-width="140.188" stroke-linecap="round" stroke-linejoin="round"/>
<path d="M10258.3 5658.43C10196.6 5619.18 9933.53 5642.07 9809.69 5658.43C9893.81 5441.14 10006 5420.11 10104.1 5336C10202.2 5251.89 10314.4 5336 10419.5 5314.97C10503.6 5298.15 10534 5167.77 10538.7 5104.69C10535.2 4508.89 10685.9 4880.39 10756 4922.44C10826.1 4964.5 10973.3 4838.33 10973.3 4859.36C10973.3 4880.39 11022.3 4929.45 11071.4 4999.55C11120.5 5069.64 10545.7 5293.94 10756 5237.86C10924.2 5193 11097.1 5219.17 11162.5 5237.86C11017.7 5284.59 10777 5386.46 10973.3 5420.11C11218.6 5462.17 11239.6 5518.24 11225.6 5532.26C11214.4 5543.48 11132.1 5546.28 11092.4 5546.28H10882.1C10826.1 5539.27 10734.9 5551.89 10819.1 5658.43C10903.2 5764.97 10751.3 5730.86 10664.8 5700.48H10419.5C10391.5 5702.82 10320 5697.68 10258.3 5658.43Z" fill="#97B4EE" stroke="#97B4EE" stroke-width="140.188" stroke-linecap="round" stroke-linejoin="round"/>
<path d="M9094.73 5525.25C9283.98 5525.25 9689.13 5518.24 9795.67 5490.21C9928.85 5455.16 9606.42 5693.48 9199.87 5609.37" stroke="#97B4EE" stroke-width="140.188" stroke-linecap="round" stroke-linejoin="round"/>
<path d="M9858.76 3541.59C10034 3857.01 10362 4608.42 10272.3 5090.67" stroke="#97B4EE" stroke-width="140.188" stroke-linecap="round" stroke-linejoin="round"/>
<path d="M9599.41 3653.74C9765.29 4139.72 10041 5181.79 9816.7 5462.17" stroke="#97B4EE" stroke-width="140.188" stroke-linecap="round" stroke-linejoin="round"/>
<path d="M9347.07 3170.09C9657.82 3553.27 10234.5 4520.1 10055 5321.98" stroke="#97B4EE" stroke-width="140.188" stroke-linecap="round" stroke-linejoin="round"/>
<path d="M9073.7 3008.87C9421.84 3305.6 10083.1 4193.46 9942.87 5371.05" stroke="#97B4EE" stroke-width="140.188" stroke-linecap="round" stroke-linejoin="round"/>
<path d="M8491.92 2784.57C9118.09 2859.34 10380.3 3430.84 10419.5 5118.71" stroke="#97B4EE" stroke-width="140.188" stroke-linecap="round" stroke-linejoin="round"/>
<path d="M8246.58 2833.64C8246.58 2833.64 9473.23 1901.38 10692.9 4908.43" stroke="#97B4EE" stroke-width="140.188" stroke-linecap="round" stroke-linejoin="round"/>
<path d="M725.478 5336C800.245 5375.72 982.022 5445.35 1111 5406.1" stroke="#97B4EE" stroke-width="140.188" stroke-linecap="round" stroke-linejoin="round"/>
<path d="M1475.49 5469.18C1589.98 5438.8 1886.24 5413.1 2155.4 5553.29" stroke="#97B4EE" stroke-width="140.188" stroke-linecap="round" stroke-linejoin="round"/>
<path d="M977.815 5742.55C1052.58 5639.74 1458.66 5495.81 2484.84 5742.55" stroke="#97B4EE" stroke-width="140.188" stroke-linecap="round" stroke-linejoin="round"/>
<path d="M1061.93 5784.6C1358.66 5768.25 2004 5745.35 2211.47 5784.6" stroke="#97B4EE" stroke-width="140.188" stroke-linecap="round" stroke-linejoin="round"/>
<path d="M318.935 5595.35C356.318 5578.99 467.534 5556.1 613.33 5595.35" stroke="#97B4EE" stroke-width="140.188" stroke-linecap="round" stroke-linejoin="round"/>
<path d="M669.407 5321.98C821.278 5314.97 1136.23 5331.79 1181.1 5455.16" stroke="#97B4EE" stroke-width="140.188" stroke-linecap="round" stroke-linejoin="round"/>
<path d="M942.771 4978.52C989.5 4948.15 1108.19 4905.62 1209.13 4978.52" stroke="#97B4EE" stroke-width="140.188" stroke-linecap="round" stroke-linejoin="round"/>
<path d="M2702.14 5616.38C2910.08 5459.83 3404.48 5149.55 3718.5 5160.76" stroke="#97B4EE" stroke-width="140.188" stroke-linecap="round" stroke-linejoin="round"/>
<path d="M2737.18 5623.39C2959.15 5497.22 3459.15 5249.08 3683.45 5265.9" stroke="#97B4EE" stroke-width="140.188" stroke-linecap="round" stroke-linejoin="round"/>
<path d="M2786.25 5630.4C3001.2 5550.95 3579.72 5413.1 4174.11 5497.22" stroke="#97B4EE" stroke-width="140.188" stroke-linecap="round" stroke-linejoin="round"/>
<path d="M3073.63 5735.54C3264.64 5682.64 3694.68 5608.59 3886.72 5735.54" stroke="#97B4EE" stroke-width="140.188" stroke-linecap="round" stroke-linejoin="round"/>
<path d="M2912.43 5644.41C3134.39 5571.98 3655.43 5456.56 3963.84 5574.32" stroke="#97B4EE" stroke-width="140.188" stroke-linecap="round" stroke-linejoin="round"/>
<path d="M1307.26 5069.64C1531.57 5097.68 2134.38 5242.07 2751.21 5595.35" stroke="#97B4EE" stroke-width="140.188" stroke-linecap="round" stroke-linejoin="round"/>
<path d="M1342.31 5174.78C1678.76 5345.34 2416.15 5668.24 2674.1 5595.34" stroke="#97B4EE" stroke-width="140.188" stroke-linecap="round" stroke-linejoin="round"/>
<path d="M1720.83 4943.47C1889.05 5013.56 2254.94 5212.63 2372.7 5448.15" stroke="#97B4EE" stroke-width="140.188" stroke-linecap="round" stroke-linejoin="round"/>
<path d="M2519.9 5181.79C2491.86 4941.14 2501.67 4368.7 2765.23 4004.21" stroke="#97B4EE" stroke-width="140.188" stroke-linecap="round" stroke-linejoin="round"/>
<path d="M2814.29 3821.96C2856.35 3665.42 3055.42 3258.41 3515.24 2882.7" stroke="#97B4EE" stroke-width="140.188" stroke-linecap="round" stroke-linejoin="round"/>
<path d="M2141.39 5034.59C2223.17 4316.8 2777.85 2804.41 4342.35 2497.18" stroke="#97B4EE" stroke-width="140.188" stroke-linecap="round" stroke-linejoin="round"/>
<path d="M4608.7 2574.3C4012.9 2378.02 2751.2 3730.84 2751.2 4761.23" stroke="#97B4EE" stroke-width="140.188" stroke-linecap="round" stroke-linejoin="round"/>
<path d="M4475.52 2497.18C3907.75 2560.27 2728.77 3198.12 2554.93 5244.88" stroke="#97B4EE" stroke-width="140.188" stroke-linecap="round" stroke-linejoin="round"/>
<path d="M4468.51 2525.22C3785.7 2864.77 2389.58 3878.47 2267.55 5216.84" stroke="#97B4EE" stroke-width="140.188" stroke-linecap="round" stroke-linejoin="round"/>
<path d="M4706.83 2357C4517.58 2399.06 4583 2438.78 4622.72 2455.13C4755.9 2413.07 4840.01 2602.33 4825.99 2497.19C4814.78 2413.07 4755.9 2356.99 4706.83 2357Z" stroke="#403634" stroke-width="210.283" stroke-linecap="round" stroke-linejoin="round"/>
<path d="M8092.38 2616.34C8047.52 2627.56 8059.67 2719.15 8071.36 2763.54C8134.44 2679.43 8239.58 2700.45 8239.58 2693.44C8239.58 2686.44 8148.46 2602.32 8092.38 2616.34Z" stroke="#403634" stroke-width="210.283" stroke-linecap="round" stroke-linejoin="round"/>
<path d="M3403.08 1670.07C3524.58 1642.03 3813.84 1625.21 3998.88 1782.22" stroke="#403634" stroke-width="210.283" stroke-linecap="round" stroke-linejoin="round"/>
<path d="M3347.01 2153.72C3510.57 2130.36 3864.31 2127.09 3970.85 2300.92" stroke="#403634" stroke-width="210.283" stroke-linecap="round" stroke-linejoin="round"/>
<path d="M9269.97 2118.67C9349.41 2041.57 9586.8 1899.98 9900.82 1950.44" stroke="#403634" stroke-width="210.283" stroke-linecap="round" stroke-linejoin="round"/>
<path d="M9206.88 2630.37C9330.72 2583.64 9626.05 2518.22 9816.7 2630.37" stroke="#403634" stroke-width="210.283" stroke-linecap="round" stroke-linejoin="round"/>
<path d="M5211.51 3268.22C4891.88 2713.07 5597.03 2415.41 5989.55 2335.97C6431.15 2265.88 6676.48 2327.17 6963.87 2371.01C7625.55 2471.96 7790.98 2805.6 7826.02 2966.82C7826.02 3050.93 7890.29 3213.7 7580.7 3296.26C7265.27 3380.37 6837.7 3242.52 6634.42 3107C6554.98 3036.91 6307.78 2951.39 5954.51 3170.09C5601.23 3388.78 5311.98 3326.63 5211.51 3268.22Z" stroke="#403634" stroke-width="210.283" stroke-linecap="round" stroke-linejoin="round"/>
<path d="M4251.23 2917.75C4295.62 3107 4593.29 3499.53 5428.81 3555.6C5113.39 3490.18 4476.93 3429.43 4454.5 3709.81C4432.07 3990.19 4818.99 4069.63 5015.26 4074.3C4917.12 4216.83 4750.3 4556.55 4868.06 4775.24C4720.86 4805.62 4454.5 4921.04 4566.65 5139.73C4678.8 5358.43 5267.6 5296.28 5547.97 5237.87C5872.74 5282.26 6628.83 5337.4 7055 5202.82C7005.93 5380.39 6975.09 5721.52 7244.25 5665.44C7580.71 5595.35 7748.93 5518.24 7861.08 5202.82C7950.8 4950.48 7963.89 4373.37 7959.21 4116.36C8218.56 4053.27 8691 3828.97 8505.95 3436.44C8283.98 3504.2 7754.54 3624.3 7412.48 3562.61C7805.01 3581.31 8623.71 3538.78 8758.29 3219.15" stroke="#403634" stroke-width="210.283" stroke-linecap="round" stroke-linejoin="round"/>
<path d="M4265.23 1270.54C4611.03 574.268 5433 -438.36 5954.5 1081.28C6340.02 1062.59 7183.96 1053.24 7475.55 1165.39C7921.82 613.986 8860.61 -72.4702 9045.66 1592.97" stroke="#403634" stroke-width="210.283" stroke-linecap="round" stroke-linejoin="round"/>
<path d="M4573.66 2609.33C3990.18 2843.99 2794.81 3744.47 2681.11 5469.18" stroke="#97B4EE" stroke-width="112.151" stroke-linecap="round" stroke-linejoin="round"/>
<path d="M12066.7 5097.68C12188.2 5114.03 12428.4 5149.55 12417.2 5160.76" stroke="#97B4EE" stroke-width="140.188" stroke-linecap="round" stroke-linejoin="round"/>
<path d="M8667.16 2777.56C8863.42 2985.51 9254.55 3485.51 9248.94 3821.96" stroke="#97B4EE" stroke-width="140.188" stroke-linecap="round" stroke-linejoin="round"/>
<path d="M8611.09 2805.6C8816.7 3039.25 9233.53 3565.42 9255.96 3800.94" stroke="#97B4EE" stroke-width="140.188" stroke-linecap="round" stroke-linejoin="round"/>
</svg>
