<svg width="7327" height="6075" viewBox="0 0 7327 6075" fill="none" xmlns="http://www.w3.org/2000/svg">
<ellipse cx="2014.92" cy="1733.42" rx="1099.05" ry="1418.77" fill="#FCF7F3"/>
<ellipse cx="4546.07" cy="2279.61" rx="1778.46" ry="1418.77" fill="#FCF7F3"/>
<ellipse cx="2434.56" cy="3105.57" rx="932.527" ry="779.326" fill="#FCF7F3"/>
<ellipse cx="1641.91" cy="2599.34" rx="925.866" ry="779.326" fill="#FCF7F3"/>
<ellipse cx="5865.83" cy="2322.91" rx="1169.25" ry="627.454" transform="rotate(104.781 5865.83 2322.91)" fill="#FCF7F3"/>
<ellipse cx="4725.02" cy="4509.44" rx="1169.25" ry="627.454" transform="rotate(104.781 4725.02 4509.44)" fill="#FCF7F3"/>
<ellipse cx="2548.34" cy="4807.68" rx="626.57" ry="336.237" transform="rotate(104.781 2548.34 4807.68)" fill="#FCF7F3"/>
<ellipse cx="5583.96" cy="1630.72" rx="959.171" ry="1079.07" transform="rotate(14.9015 5583.96 1630.72)" fill="#FCF7F3"/>
<path d="M2574.55 3411.97C2563.89 3006.98 2747.63 2939.04 2867.63 2939.04C3074.01 2939.05 3541.82 2905.91 3833.46 2939.04C4126.54 2972.34 4174.79 3185.5 4173.16 3332.03C4168.72 3731.69 4162.51 4578.96 4173.16 4770.79C4183.82 4962.63 4022.18 5019.47 3940.03 5023.91C3640.19 5063.87 2974.1 5063.87 2814.34 5063.87C2647.01 5063.87 2598.97 4879.59 2594.53 4770.79C2592.31 4486.59 2585.21 3816.95 2574.55 3411.97Z" fill="#FCF7F3" stroke="#FCF7F3" stroke-width="199.827" stroke-linecap="round" stroke-linejoin="round"/>
<path d="M2773.23 3200.61C2772.69 3115.35 2834.73 3093.65 2865.81 3093.45C2990.13 3090.46 3222.79 3084.56 3265.42 3084.3C3318.71 3083.97 3338.9 3117.14 3339.39 3197.07C3340.28 3339.17 3348.06 3518.08 3348.26 3550.05C3348.46 3582.02 3342.14 3636.69 3288.89 3643.68C3168.99 3642.21 2913.19 3640.69 2849.28 3646.42C2785.37 3652.15 2773.42 3586.95 2775.43 3553.63L2773.23 3200.61Z" fill="#FCF7F3" stroke="#FCF7F3" stroke-width="53.2873" stroke-linecap="round" stroke-linejoin="round"/>
<path d="M2947.46 3225.46C2900.83 3212.14 2867.53 3309.39 2947.46 3305.39C3027.39 3301.39 3007.41 3225.46 2947.46 3225.46Z" fill="#FCF7F3" stroke="#FCF7F3" stroke-width="79.9309" stroke-linecap="round" stroke-linejoin="round"/>
<path d="M3162.23 3339.95C3115.6 3326.63 3082.3 3423.89 3162.23 3419.88C3242.16 3415.88 3222.17 3339.95 3162.23 3339.95Z" fill="#FCF7F3" stroke="#FCF7F3" stroke-width="79.9309" stroke-linecap="round" stroke-linejoin="round"/>
<path d="M3256.4 3887.15C3170.27 3863.15 3108.76 4038.43 3256.4 4031.22C3404.04 4024 3367.12 3887.15 3256.4 3887.15Z" fill="#FCF7F3" stroke="#FCF7F3" stroke-width="79.9309" stroke-linecap="round" stroke-linejoin="round"/>
<path d="M3256.4 4353.42C3170.27 4329.42 3108.76 4504.7 3256.4 4497.48C3404.04 4490.27 3367.12 4353.42 3256.4 4353.42Z" fill="#FCF7F3" stroke="#FCF7F3" stroke-width="79.9309" stroke-linecap="round" stroke-linejoin="round"/>
<path d="M3606.89 4464.39C3697.92 4422.2 3818.7 4309.86 3573.58 4197.95C3673.5 4111.36 3813.37 3922.19 3573.58 3858.25" stroke="#FCF7F3" stroke-width="199.827" stroke-linecap="round" stroke-linejoin="round"/>
<path d="M2962.4 3459.84C2915.78 3446.53 2882.47 3543.78 2962.4 3539.78C3042.34 3535.77 3022.35 3459.84 2962.4 3459.84Z" fill="#FCF7F3" stroke="#FCF7F3" stroke-width="79.9309" stroke-linecap="round" stroke-linejoin="round"/>
<path d="M1495.38 2685.93C1402.12 2672.61 1388.81 2763.2 1495.38 2805.83C1628.6 2859.11 1741.83 2732.56 1495.38 2685.93Z" stroke="#FCF7F3" stroke-width="506.229" stroke-linecap="round" stroke-linejoin="round"/>
<path d="M5272.12 2779.17C5178.86 2759.2 5069.63 2877.76 5272.12 2899.07C5525.23 2925.71 5352.05 2772.52 5272.12 2779.17Z" stroke="#FCF7F3" stroke-width="506.229" stroke-linecap="round" stroke-linejoin="round"/>
<path d="M569.506 1453.66C620.573 1524.71 771.997 1680.13 969.16 1733.42" stroke="#FCF7F3" stroke-width="506.229" stroke-linecap="round" stroke-linejoin="round"/>
<path d="M269.77 2166.38C460.716 2124.19 829.286 2079.79 775.999 2239.65" stroke="#FCF7F3" stroke-width="506.229" stroke-linecap="round" stroke-linejoin="round"/>
<path d="M6324.53 2039.82C6508.82 1982.09 6913.36 1883.96 7057.23 1953.23" stroke="#FCF7F3" stroke-width="506.229" stroke-linecap="round" stroke-linejoin="round"/>
<path d="M6124.71 2625.98C6277.91 2597.12 6638.93 2556.71 6857.41 2625.98" stroke="#FCF7F3" stroke-width="506.229" stroke-linecap="round" stroke-linejoin="round"/>
<path d="M2880.85 2472.78C2934.13 2563.81 3090 2683.26 3287.16 2432.81C3431.48 2577.13 3744.1 2779.18 3840.02 2432.81" stroke="#FCF7F3" stroke-width="506.229" stroke-linecap="round" stroke-linejoin="round"/>
<path d="M1954.99 2219.7C1855.08 2186.37 1722.02 2400.94 1915.02 2439.51C2114.84 2479.44 2081.54 2179.73 1954.99 2219.7Z" fill="#FCF7F3" stroke="#FCF7F3" stroke-width="506.229" stroke-linecap="round" stroke-linejoin="round"/>
<path d="M4832.48 2366.21C4725.93 2339.57 4645.98 2552.72 4832.48 2552.72C4992.36 2552.71 4959.04 2366.21 4832.48 2366.21Z" stroke="#FCF7F3" stroke-width="506.229" stroke-linecap="round" stroke-linejoin="round"/>
<path d="M5465.28 3461.36C5342.54 3521.53 5207.17 3551.42 5065.63 3525.21C5181.08 3535.93 5422.65 3538.17 5465.28 3461.36C5716.83 3338.05 5915.28 3087.58 6004.81 2932.39M5465.28 3461.36C5636.24 4255.31 5670.44 5820.56 4439.5 5729.97C4332.93 5703.33 4183.72 5596.75 4439.5 5383.6C3897.75 5308.11 2694.34 5230.4 2214.75 5523.48C1970.52 5512.38 1613.94 5390.27 2141.48 4990.61C2043.79 4879.6 1907.02 4447.08 2141.48 3605.14C1777.35 3480.8 1035.77 3130.88 982.487 2725.9" stroke="#FCF7F3" stroke-width="506.229" stroke-linecap="round" stroke-linejoin="round"/>
<path d="M2740.95 3951.52C2740.95 3718.38 2490.06 3589.61 2334.63 3571.84C2130.37 3536.32 1815.09 3718.37 1875.03 4051.43C1952.37 4481.16 2407.9 4384.47 2567.76 4324.52C2780.91 4177.98 2740.95 4051.43 2740.95 3951.52Z" fill="#FCF7F3" stroke="#FCF7F3" stroke-width="506.229" stroke-linecap="round" stroke-linejoin="round"/>
<path d="M4619.34 3425.29C4410.63 3507.45 4023.86 3757.01 4146.42 4098.05C4268.98 4439.09 4628.22 4360.04 4792.52 4277.89" stroke="#FCF7F3" stroke-width="506.229" stroke-linecap="round" stroke-linejoin="round"/>
<path d="M2927.47 1014.04C2800.92 1173.91 2601.09 1501.62 2814.24 1533.59C3080.67 1573.56 2994.08 1107.3 2927.47 1014.04Z" fill="#FCF7F3" stroke="#FCF7F3" stroke-width="506.229" stroke-linecap="round" stroke-linejoin="round"/>
<path d="M3646.85 960.759C3500.31 1158.37 3264.52 1576.23 3493.65 1666.82C3780.07 1780.05 3740.11 960.759 3646.85 960.759Z" fill="#FCF7F3" stroke="#FCF7F3" stroke-width="506.229" stroke-linecap="round" stroke-linejoin="round"/>
<path d="M4392.87 1034.03C4277.41 1216.09 4094.46 1601.53 4286.29 1686.79C4526.08 1793.37 4499.44 1054.01 4392.87 1034.03Z" fill="#FCF7F3" stroke="#FCF7F3" stroke-width="506.229" stroke-linecap="round" stroke-linejoin="round"/>
<path d="M1222.28 1379.07C1430.99 630.827 2048.23 -487.318 2847.54 1026.04C3302.71 935.008 4310.28 828.879 4699.28 1132.62C5158.88 450.983 6120.71 -439.358 6291.23 1452.34" stroke="#FCF7F3" stroke-width="506.229" stroke-linecap="round" stroke-linejoin="round"/>
<path d="M2574.55 3411.97C2563.89 3006.98 2747.63 2939.04 2867.63 2939.04C3074.01 2939.05 3541.82 2905.91 3833.46 2939.04C4126.54 2972.34 4174.79 3185.5 4173.16 3332.03C4168.72 3731.69 4162.51 4578.96 4173.16 4770.79C4183.82 4962.63 4022.18 5019.47 3940.03 5023.91C3640.19 5063.87 2974.1 5063.87 2814.34 5063.87C2647.01 5063.87 2598.97 4879.59 2594.53 4770.79C2592.31 4486.59 2585.21 3816.95 2574.55 3411.97Z" fill="#9B9B9B" stroke="#545453" stroke-width="199.827" stroke-linecap="round" stroke-linejoin="round"/>
<ellipse cx="4500.2" cy="3956.4" rx="389.263" ry="314.57" transform="rotate(104.781 4500.2 3956.4)" fill="#FCF7F3"/>
<path d="M2773.23 3200.61C2772.69 3115.35 2834.73 3093.65 2865.81 3093.45C2990.13 3090.46 3222.79 3084.56 3265.42 3084.3C3318.71 3083.97 3338.9 3117.14 3339.39 3197.07C3340.28 3339.17 3348.06 3518.08 3348.26 3550.05C3348.46 3582.02 3342.14 3636.69 3288.89 3643.68C3168.99 3642.21 2913.19 3640.69 2849.28 3646.42C2785.37 3652.15 2773.42 3586.95 2775.43 3553.63L2773.23 3200.61Z" fill="#DEDBD9" stroke="#545453" stroke-width="53.2873" stroke-linecap="round" stroke-linejoin="round"/>
<path d="M2947.46 3225.46C2900.83 3212.14 2867.53 3309.39 2947.46 3305.39C3027.39 3301.39 3007.41 3225.46 2947.46 3225.46Z" fill="#040404" stroke="#030303" stroke-width="79.9309" stroke-linecap="round" stroke-linejoin="round"/>
<path d="M3162.23 3339.95C3115.6 3326.63 3082.3 3423.89 3162.23 3419.88C3242.16 3415.88 3222.17 3339.95 3162.23 3339.95Z" fill="#040404" stroke="#030303" stroke-width="79.9309" stroke-linecap="round" stroke-linejoin="round"/>
<path d="M3256.4 3887.15C3170.27 3863.15 3108.76 4038.43 3256.4 4031.22C3404.04 4024 3367.12 3887.15 3256.4 3887.15Z" fill="#DEDBD9" stroke="#DEDBD9" stroke-width="79.9309" stroke-linecap="round" stroke-linejoin="round"/>
<path d="M3256.4 4353.42C3170.27 4329.42 3108.76 4504.7 3256.4 4497.48C3404.04 4490.27 3367.12 4353.42 3256.4 4353.42Z" fill="#DEDBD9" stroke="#DEDBD9" stroke-width="79.9309" stroke-linecap="round" stroke-linejoin="round"/>
<path d="M3606.89 4464.39C3697.92 4422.2 3818.7 4309.86 3573.58 4197.95C3673.5 4111.36 3813.37 3922.19 3573.58 3858.25" stroke="#DEDBD9" stroke-width="199.827" stroke-linecap="round" stroke-linejoin="round"/>
<path d="M2962.4 3459.84C2915.78 3446.53 2882.47 3543.78 2962.4 3539.78C3042.34 3535.77 3022.35 3459.84 2962.4 3459.84Z" fill="#040404" stroke="#030303" stroke-width="79.9309" stroke-linecap="round" stroke-linejoin="round"/>
<path d="M1495.38 2685.93C1402.12 2672.61 1388.81 2763.2 1495.38 2805.83C1628.6 2859.11 1741.83 2732.56 1495.38 2685.93Z" stroke="#EE979B" stroke-width="199.827" stroke-linecap="round" stroke-linejoin="round"/>
<path d="M5272.12 2779.17C5178.86 2759.2 5069.63 2877.76 5272.12 2899.07C5525.23 2925.71 5352.05 2772.52 5272.12 2779.17Z" stroke="#EE979B" stroke-width="199.827" stroke-linecap="round" stroke-linejoin="round"/>
<path d="M569.506 1453.66C620.573 1524.71 771.997 1680.13 969.16 1733.42" stroke="#403634" stroke-width="199.827" stroke-linecap="round" stroke-linejoin="round"/>
<path d="M269.77 2166.38C460.716 2124.19 829.286 2079.79 775.999 2239.65" stroke="#403634" stroke-width="199.827" stroke-linecap="round" stroke-linejoin="round"/>
<path d="M6324.53 2039.82C6508.82 1982.09 6913.36 1883.96 7057.23 1953.23" stroke="#403634" stroke-width="199.827" stroke-linecap="round" stroke-linejoin="round"/>
<path d="M6124.71 2625.98C6277.91 2597.12 6638.93 2556.71 6857.41 2625.98" stroke="#403634" stroke-width="199.827" stroke-linecap="round" stroke-linejoin="round"/>
<path d="M2880.85 2472.78C2934.13 2563.81 3090 2683.26 3287.16 2432.81C3431.48 2577.13 3744.1 2779.18 3840.02 2432.81" stroke="#403634" stroke-width="199.827" stroke-linecap="round" stroke-linejoin="round"/>
<path d="M1954.99 2219.7C1855.08 2186.37 1722.02 2400.94 1915.02 2439.51C2114.84 2479.44 2081.54 2179.73 1954.99 2219.7Z" fill="#403634" stroke="#403634" stroke-width="199.827" stroke-linecap="round" stroke-linejoin="round"/>
<path d="M4832.48 2366.21C4725.93 2339.57 4645.98 2552.72 4832.48 2552.72C4992.36 2552.71 4959.04 2366.21 4832.48 2366.21Z" stroke="#403634" stroke-width="199.827" stroke-linecap="round" stroke-linejoin="round"/>
<path d="M5465.28 3461.36C5342.54 3521.53 5207.17 3551.42 5065.63 3525.21C5181.08 3535.93 5422.65 3538.17 5465.28 3461.36C5716.83 3338.05 5915.28 3087.58 6004.81 2932.39M5465.28 3461.36C5636.24 4255.31 5670.44 5820.56 4439.5 5729.97C4332.93 5703.33 4183.72 5596.75 4439.5 5383.6C3897.75 5308.11 2694.34 5230.4 2214.75 5523.48C1970.52 5512.38 1613.94 5390.27 2141.48 4990.61C2043.79 4879.6 1907.02 4447.08 2141.48 3605.14C1777.35 3480.8 1035.77 3130.88 982.487 2725.9" stroke="#403634" stroke-width="199.827" stroke-linecap="round" stroke-linejoin="round"/>
<path d="M2740.95 3951.52C2740.95 3718.38 2490.06 3589.61 2334.63 3571.84C2130.37 3536.32 1815.09 3718.37 1875.03 4051.43C1952.37 4481.16 2407.9 4384.47 2567.76 4324.52C2780.91 4177.98 2740.95 4051.43 2740.95 3951.52Z" fill="#FCF7F3" stroke="#403634" stroke-width="199.827" stroke-linecap="round" stroke-linejoin="round"/>
<path d="M4619.34 3425.29C4410.63 3507.45 4023.86 3757.01 4146.42 4098.05C4268.98 4439.09 4628.22 4360.04 4792.52 4277.89" stroke="#403634" stroke-width="199.827" stroke-linecap="round" stroke-linejoin="round"/>
<path d="M2927.47 1014.04C2800.92 1173.91 2601.09 1501.62 2814.24 1533.59C3080.67 1573.56 2994.08 1107.3 2927.47 1014.04Z" fill="#DEDBD9" stroke="#DEDBD9" stroke-width="199.827" stroke-linecap="round" stroke-linejoin="round"/>
<path d="M3646.85 960.759C3500.31 1158.37 3264.52 1576.23 3493.65 1666.82C3780.07 1780.05 3740.11 960.759 3646.85 960.759Z" fill="#DEDBD9" stroke="#DEDBD9" stroke-width="199.827" stroke-linecap="round" stroke-linejoin="round"/>
<path d="M4392.87 1034.03C4277.41 1216.09 4094.46 1601.53 4286.29 1686.79C4526.08 1793.37 4499.44 1054.01 4392.87 1034.03Z" fill="#DEDBD9" stroke="#DEDBD9" stroke-width="199.827" stroke-linecap="round" stroke-linejoin="round"/>
<path d="M1222.28 1379.07C1430.99 630.827 2048.23 -487.318 2847.54 1026.04C3302.71 935.008 4310.28 828.879 4699.28 1132.62C5158.88 450.983 6120.71 -439.358 6291.23 1452.34" stroke="#403634" stroke-width="199.827" stroke-linecap="round" stroke-linejoin="round"/>
</svg>
